<?xml version="1.0" encoding="utf-8"?>
<!-- Generator: Adobe Illustrator 22.1.0, SVG Export Plug-In . SVG Version: 6.00 Build 0)  -->
<svg version="1.1" id="Layer_1" xmlns="http://www.w3.org/2000/svg" xmlns:xlink="http://www.w3.org/1999/xlink" x="0px" y="0px"
	 viewBox="0 0 683 980" style="enable-background:new 0 0 683 980;" xml:space="preserve">
<style type="text/css">
	.st0{fill:#FFFFFF;}
	.st1{fill:#B9BCD1;}
	.st2{fill:#5862E7;}
	.st3{fill:#E2E5FF;}
	.st4{fill:#5C7AFF;}
</style>
<g>
	<g>
		<path class="st0" d="M79.3,974C37.2,974,3,939.8,3,897.7V78.3C3,36.2,37.2,2,79.3,2h524.3C645.8,2,680,36.2,680,78.3v819.3
			c0,42.1-34.2,76.3-76.3,76.3H79.3z"/>
		<g>
			<path class="st1" d="M603.7,5c19.5,0,37.9,7.7,51.8,21.5C669.3,40.4,677,58.8,677,78.3v819.3c0,19.5-7.7,37.9-21.5,51.8
				c-13.9,13.9-32.3,21.5-51.8,21.5H79.3c-19.5,0-37.9-7.7-51.8-21.5C13.7,935.6,6,917.2,6,897.7V78.3c0-19.5,7.7-37.9,21.5-51.8
				C41.4,12.7,59.8,5,79.3,5H603.7 M603.7-1H79.3C35.7-1,0,34.7,0,78.3v819.3C0,941.3,35.7,977,79.3,977h524.3
				c43.6,0,79.3-35.7,79.3-79.3V78.3C683,34.7,647.3-1,603.7-1L603.7-1z"/>
		</g>
	</g>
	<g>
		<path class="st2" d="M682.5,136C539.7,136,424,251.7,424,394.5S539.7,653,682.5,653"/>
		<path class="st2" d="M683,653V136"/>
		<path class="st2" d="M939.3,364.7c0.1,1.1,0.3,2.2,0.4,3.3C939.6,367,939.4,365.9,939.3,364.7z"/>
		<path class="st2" d="M940.8,385.5c0,0.8,0.1,1.6,0.1,2.4C940.9,387,940.9,386.3,940.8,385.5z"/>
		<path class="st2" d="M940,371.7c0.1,1,0.2,2,0.3,2.9C940.2,373.6,940.1,372.7,940,371.7z"/>
		<path class="st2" d="M940.5,378.7c0.1,0.8,0.1,1.7,0.2,2.5C940.6,380.4,940.6,379.5,940.5,378.7z"/>
		<path class="st2" d="M939.3,424.2c0.1-1.1,0.3-2.2,0.4-3.3C939.6,422,939.4,423.1,939.3,424.2z"/>
		<path class="st2" d="M940.5,410.3c0.1-0.8,0.1-1.7,0.2-2.5C940.6,408.6,940.6,409.5,940.5,410.3z"/>
		<path class="st2" d="M940,417.4c0.1-1,0.2-2,0.3-3C940.2,415.4,940.1,416.4,940,417.4z"/>
		<path class="st2" d="M940.8,403.5c0-0.8,0.1-1.6,0.1-2.4C940.9,402,940.9,402.7,940.8,403.5z"/>
	</g>
	<path class="st3" d="M289,296H104c-6.6,0-12-5.4-12-12V99c0-6.6,5.4-12,12-12h185c6.6,0,12,5.4,12,12v185
		C301,290.6,295.6,296,289,296z"/>
	<path class="st4" d="M291,384H107c-6.6,0-12-5.4-12-12v-9c0-6.6,5.4-12,12-12h184c6.6,0,12,5.4,12,12v9
		C303,378.6,297.6,384,291,384z"/>
	<path class="st3" d="M414,559H100c-6,0-11-5-11-11l0,0c0-6,4.9-11,11-11h314c6.1,0,11,5,11,11l0,0C425,554,420.1,559,414,559z"/>
	<path class="st3" d="M414,598H100c-6,0-11-5-11-11l0,0c0-6,4.9-11,11-11h314c6.1,0,11,5,11,11l0,0C425,593,420.1,598,414,598z"/>
	<path class="st3" d="M414,701H100c-6,0-11-5-11-11l0,0c0-6,4.9-11,11-11h314c6.1,0,11,5,11,11l0,0C425,696,420.1,701,414,701z"/>
	<path class="st3" d="M414,740H100c-6,0-11-5-11-11l0,0c0-6,4.9-11,11-11h314c6.1,0,11,5,11,11l0,0C425,735,420.1,740,414,740z"/>
</g>
</svg>
